# Blender 4.3.2
# www.blender.org
mtllib thunder_mesh2.mtl
o Plane
v -1.407350 0.000000 1.407350
v 1.407350 0.000000 1.407350
v -1.407350 0.000000 -1.407350
v 1.407350 0.000000 -1.407350
v -0.599940 0.041469 -0.000001
v 0.599940 0.041469 -0.000000
v -0.532353 17.142159 0.376833
v 0.532353 17.142159 -0.376832
v -0.478601 16.433578 0.329679
v -0.267725 15.666044 0.172673
v -0.007464 14.818045 0.004401
v 0.356663 13.549255 -0.183643
v 0.380608 12.112545 -0.150630
v 0.183611 10.725897 -0.050559
v -0.051912 9.651432 0.009852
v -0.187813 8.890883 0.035154
v -0.858764 8.088853 0.204274
v -2.027401 7.082929 0.147776
v -2.983362 6.077007 -0.243486
v -3.396250 5.071084 -0.536197
v -2.977016 4.065162 -0.259228
v -2.026566 2.899239 0.061042
v -1.117418 1.640350 0.048406
v -0.663963 0.703737 -0.000001
v 0.652772 0.703737 -0.000000
v 0.472839 1.640350 0.030830
v -0.160575 2.872769 0.392355
v -0.949295 4.059068 0.577715
v -1.282183 5.071084 0.536195
v -0.949594 6.077007 0.586682
v 0.007988 7.082929 0.453469
v 1.145273 8.082779 -0.062816
v 1.928156 8.885547 -0.262185
v 2.355119 9.647094 -0.434143
v 2.856414 10.724784 -0.730404
v 3.036530 12.112545 -1.086209
v 2.769217 13.501387 -1.308757
v 1.960182 14.768310 -1.127822
v 1.318480 15.664710 -0.842770
v 0.795649 16.433733 -0.546831
v 0.000000 -0.014517 -0.621067
v -0.000000 1.654781 -2.601247
v 0.121164 -0.014517 -0.609133
v 0.507478 1.654781 -2.551265
v 0.237672 -0.014517 -0.573791
v 0.995454 1.654781 -2.403239
v 0.345046 -0.014517 -0.516398
v 1.445175 1.654781 -2.162858
v 0.439160 -0.014517 -0.439160
v 1.839360 1.654781 -1.839360
v 0.516398 -0.014517 -0.345046
v 2.162858 1.654781 -1.445175
v 0.573791 -0.014517 -0.237672
v 2.403239 1.654781 -0.995454
v 0.609133 -0.014517 -0.121164
v 2.551265 1.654781 -0.507478
v 0.621067 -0.014517 0.000000
v 2.601247 1.654781 -0.000000
v 0.609133 -0.014517 0.121164
v 2.551265 1.654781 0.507478
v 0.573791 -0.014517 0.237672
v 2.403239 1.654781 0.995454
v 0.516398 -0.014517 0.345046
v 2.162858 1.654781 1.445175
v 0.439160 -0.014517 0.439160
v 1.839360 1.654781 1.839360
v 0.345046 -0.014517 0.516398
v 1.445175 1.654781 2.162858
v 0.237672 -0.014517 0.573791
v 0.995454 1.654781 2.403239
v 0.121164 -0.014517 0.609133
v 0.507478 1.654781 2.551265
v 0.000000 -0.014517 0.621067
v -0.000000 1.654781 2.601247
v -0.121164 -0.014517 0.609133
v -0.507478 1.654781 2.551265
v -0.237672 -0.014517 0.573791
v -0.995454 1.654781 2.403239
v -0.345046 -0.014517 0.516398
v -1.445175 1.654781 2.162858
v -0.439160 -0.014517 0.439160
v -1.839360 1.654781 1.839360
v -0.516398 -0.014517 0.345046
v -2.162858 1.654781 1.445175
v -0.573791 -0.014517 0.237672
v -2.403239 1.654781 0.995454
v -0.609133 -0.014517 0.121164
v -2.551265 1.654781 0.507478
v -0.621067 -0.014517 0.000000
v -2.601247 1.654781 -0.000000
v -0.609133 -0.014517 -0.121164
v -2.551265 1.654781 -0.507478
v -0.573791 -0.014517 -0.237672
v -2.403239 1.654781 -0.995454
v -0.516398 -0.014517 -0.345046
v -2.162858 1.654781 -1.445175
v -0.439160 -0.014517 -0.439160
v -1.839360 1.654781 -1.839360
v -0.345046 -0.014517 -0.516398
v -1.445175 1.654781 -2.162858
v -0.237672 -0.014517 -0.573791
v -0.995454 1.654781 -2.403239
v -0.121164 -0.014517 -0.609133
v -0.507478 1.654781 -2.551265
vn -0.0000 1.0000 -0.0000
vn -0.0000 -0.0000 1.0000
vn 0.5718 0.0022 0.8204
vn 0.5632 0.0088 0.8263
vn 0.5383 0.0284 0.8423
vn 0.4945 0.0600 0.8671
vn 0.4212 0.1006 0.9014
vn 0.3299 0.1194 0.9364
vn 0.2476 0.1006 0.9636
vn 0.1850 0.0764 0.9798
vn 0.1453 0.0901 0.9853
vn 0.0293 0.1996 0.9794
vn -0.2076 0.1561 0.9657
vn -0.3770 0.0359 0.9255
vn -0.4178 -0.0066 0.9085
vn -0.3805 -0.0558 0.9231
vn -0.2290 -0.1706 0.9584
vn -0.0578 -0.1481 0.9873
vn 0.0035 -0.0233 0.9997
vn 0.0029 -0.0193 0.9998
vn -0.0312 -0.1033 0.9942
vn -0.1566 -0.1877 0.9697
vn -0.3375 -0.1023 0.9358
vn -0.3226 0.0838 0.9428
vn -0.0790 0.2072 0.9751
vn 0.1014 0.1348 0.9857
vn 0.1544 0.0777 0.9850
vn 0.1971 0.0809 0.9770
vn 0.2603 0.1057 0.9597
vn 0.3330 0.1196 0.9353
vn 0.4059 0.1076 0.9075
vn 0.4756 0.0721 0.8767
vn 0.5273 0.0373 0.8489
vn 0.5585 0.0123 0.8294
vn -0.0000 0.7646 0.6445
vn -0.1257 0.7646 0.6322
vn -0.2467 0.7646 0.5955
vn -0.3581 0.7646 0.5359
vn -0.4558 0.7646 0.4558
vn -0.5359 0.7646 0.3581
vn -0.5955 0.7646 0.2467
vn -0.6322 0.7646 0.1257
vn -0.6445 0.7646 -0.0000
vn -0.6322 0.7646 -0.1257
vn -0.5955 0.7646 -0.2467
vn -0.5359 0.7646 -0.3581
vn -0.4558 0.7646 -0.4558
vn -0.3581 0.7646 -0.5359
vn -0.2467 0.7646 -0.5955
vn -0.1257 0.7646 -0.6322
vn -0.0000 0.7646 -0.6445
vn 0.1257 0.7646 -0.6322
vn 0.2467 0.7646 -0.5955
vn 0.3581 0.7646 -0.5359
vn 0.4558 0.7646 -0.4558
vn 0.5359 0.7646 -0.3581
vn 0.5955 0.7646 -0.2467
vn 0.6322 0.7646 -0.1257
vn 0.6445 0.7646 -0.0000
vn 0.6322 0.7646 0.1257
vn 0.5955 0.7646 0.2467
vn 0.5359 0.7646 0.3581
vn 0.4558 0.7646 0.4558
vn 0.3581 0.7646 0.5359
vn 0.2467 0.7646 0.5955
vn 0.1257 0.7646 0.6322
vt 0.000000 0.000000
vt 1.000000 0.000000
vt 1.000000 1.000000
vt 0.000000 1.000000
vt 0.000000 0.941176
vt 1.000000 0.941176
vt 1.000000 0.058824
vt 0.000000 0.058824
vt 1.000000 0.117647
vt 0.000000 0.117647
vt 1.000000 0.176471
vt 0.000000 0.176471
vt 1.000000 0.235294
vt 0.000000 0.235294
vt 1.000000 0.294118
vt 0.000000 0.294118
vt 1.000000 0.352941
vt 0.000000 0.352941
vt 1.000000 0.411765
vt 0.000000 0.411765
vt 1.000000 0.470588
vt 0.000000 0.470588
vt 1.000000 0.529412
vt 0.000000 0.529412
vt 1.000000 0.588235
vt 0.000000 0.588235
vt 1.000000 0.647059
vt 0.000000 0.647059
vt 1.000000 0.705882
vt 0.000000 0.705882
vt 1.000000 0.764706
vt 0.000000 0.764706
vt 1.000000 0.823529
vt 0.000000 0.823529
vt 1.000000 0.882353
vt 0.000000 0.882353
vt 0.968750 0.000000
vt 0.968750 1.000000
vt 0.937500 0.000000
vt 0.937500 1.000000
vt 0.906250 0.000000
vt 0.906250 1.000000
vt 0.875000 0.000000
vt 0.875000 1.000000
vt 0.843750 0.000000
vt 0.843750 1.000000
vt 0.812500 0.000000
vt 0.812500 1.000000
vt 0.781250 0.000000
vt 0.781250 1.000000
vt 0.750000 0.000000
vt 0.750000 1.000000
vt 0.718750 0.000000
vt 0.718750 1.000000
vt 0.687500 0.000000
vt 0.687500 1.000000
vt 0.656250 0.000000
vt 0.656250 1.000000
vt 0.625000 0.000000
vt 0.625000 1.000000
vt 0.593750 0.000000
vt 0.593750 1.000000
vt 0.562500 0.000000
vt 0.562500 1.000000
vt 0.531250 0.000000
vt 0.531250 1.000000
vt 0.500000 0.000000
vt 0.500000 1.000000
vt 0.468750 0.000000
vt 0.468750 1.000000
vt 0.437500 0.000000
vt 0.437500 1.000000
vt 0.406250 0.000000
vt 0.406250 1.000000
vt 0.375000 0.000000
vt 0.375000 1.000000
vt 0.343750 0.000000
vt 0.343750 1.000000
vt 0.312500 0.000000
vt 0.312500 1.000000
vt 0.281250 0.000000
vt 0.281250 1.000000
vt 0.250000 0.000000
vt 0.250000 1.000000
vt 0.218750 0.000000
vt 0.218750 1.000000
vt 0.187500 0.000000
vt 0.187500 1.000000
vt 0.156250 0.000000
vt 0.156250 1.000000
vt 0.125000 0.000000
vt 0.125000 1.000000
vt 0.093750 0.000000
vt 0.093750 1.000000
vt 0.062500 0.000000
vt 0.062500 1.000000
vt 0.031250 0.000000
vt 0.031250 1.000000
s 1
usemtl suelo
f 1/1/1 2/2/1 4/3/1 3/4/1
usemtl rayito
f 9/5/4 40/6/34 8/3/3 7/4/3
f 5/1/2 6/2/2 25/7/20 24/8/19
f 24/8/19 25/7/20 26/9/21 23/10/18
f 23/10/18 26/9/21 27/11/22 22/12/17
f 22/12/17 27/11/22 28/13/23 21/14/16
f 21/14/16 28/13/23 29/15/15 20/16/15
f 20/16/15 29/15/15 30/17/24 19/18/14
f 19/18/14 30/17/24 31/19/25 18/20/13
f 18/20/13 31/19/25 32/21/26 17/22/12
f 17/22/12 32/21/26 33/23/27 16/24/11
f 16/24/11 33/23/27 34/25/28 15/26/10
f 15/26/10 34/25/28 35/27/29 14/28/9
f 14/28/9 35/27/29 36/29/30 13/30/8
f 13/30/8 36/29/30 37/31/31 12/32/7
f 12/32/7 37/31/31 38/33/32 11/34/6
f 11/34/6 38/33/32 39/35/33 10/36/5
f 10/36/5 39/35/33 40/6/34 9/5/4
usemtl explosion
f 41/2/35 43/37/36 44/38/36 42/3/35
f 43/37/36 45/39/37 46/40/37 44/38/36
f 45/39/37 47/41/38 48/42/38 46/40/37
f 47/41/38 49/43/39 50/44/39 48/42/38
f 49/43/39 51/45/40 52/46/40 50/44/39
f 51/45/40 53/47/41 54/48/41 52/46/40
f 53/47/41 55/49/42 56/50/42 54/48/41
f 55/49/42 57/51/43 58/52/43 56/50/42
f 57/51/43 59/53/44 60/54/44 58/52/43
f 59/53/44 61/55/45 62/56/45 60/54/44
f 61/55/45 63/57/46 64/58/46 62/56/45
f 63/57/46 65/59/47 66/60/47 64/58/46
f 65/59/47 67/61/48 68/62/48 66/60/47
f 67/61/48 69/63/49 70/64/49 68/62/48
f 69/63/49 71/65/50 72/66/50 70/64/49
f 71/65/50 73/67/51 74/68/51 72/66/50
f 73/67/51 75/69/52 76/70/52 74/68/51
f 75/69/52 77/71/53 78/72/53 76/70/52
f 77/71/53 79/73/54 80/74/54 78/72/53
f 79/73/54 81/75/55 82/76/55 80/74/54
f 81/75/55 83/77/56 84/78/56 82/76/55
f 83/77/56 85/79/57 86/80/57 84/78/56
f 85/79/57 87/81/58 88/82/58 86/80/57
f 87/81/58 89/83/59 90/84/59 88/82/58
f 89/83/59 91/85/60 92/86/60 90/84/59
f 91/85/60 93/87/61 94/88/61 92/86/60
f 93/87/61 95/89/62 96/90/62 94/88/61
f 95/89/62 97/91/63 98/92/63 96/90/62
f 97/91/63 99/93/64 100/94/64 98/92/63
f 99/93/64 101/95/65 102/96/65 100/94/64
f 101/95/65 103/97/66 104/98/66 102/96/65
f 103/97/66 41/1/35 42/4/35 104/98/66
